<?xml version="1.0" encoding="UTF-8"?>
<!-- Generated by jsxcad -->
<!DOCTYPE svg PUBLIC "-//W3C//DTD SVG 1.1 Tiny//EN" "http://www.w3.org/Graphics/SVG/1.1/DTD/svg11-tiny.dtd">
<svg baseProfile="tiny" height="10.000000000000007mm" width="31.500000000000014mm" viewBox="-15.750000000000007 -5.0000000000000036 31.500000000000014 10.000000000000007" version="1.1" stroke="black" stroke-width=".1" fill="none" xmlns="http://www.w3.org/2000/svg">
<path fill="#000000" stroke="#000000" d="M-15 5 L-15 5 L15 5 L15 5 z"/>
<path fill="#000000" stroke="#000000" d="M-15 -5 L-15 -5 L-15 5 L-15 5 z"/>
<path fill="#000000" stroke="#000000" d="M15 -5 L15 -5 L-15 -5 L-15 -5 z"/>
<path fill="#000000" stroke="#000000" d="M15 5 L15 5 L15 -5 L15 -5 z"/>
<path fill="#000000" stroke="#000000" d="M-15 4.999999999999999 L15 4.999999999999999 L15 -4.999999999999999 L-15 -4.999999999999999 z"/>
<path fill="#000000" stroke="#000000" d="M-15 4.999999999999999 L-15 -4.999999999999999 L15 -4.999999999999999 L15 4.999999999999999 z"/>
<path fill="#000000" stroke="#000000" d="M-15.75 -2.3333333333333335 L-15.75 -2.3333333333333335 L15.75 -2.3333333333333335 L15.75 -2.3333333333333335 z"/>
<path fill="#000000" stroke="#000000" d="M-15.75 -4.333333333333333 L-15.75 -4.333333333333333 L-15.75 -2.3333333333333335 L-15.75 -2.3333333333333335 z"/>
<path fill="#000000" stroke="#000000" d="M15.75 -4.333333333333333 L15.75 -4.333333333333333 L-15.75 -4.333333333333333 L-15.75 -4.333333333333333 z"/>
<path fill="#000000" stroke="#000000" d="M15.75 -2.3333333333333335 L15.75 -2.3333333333333335 L15.75 -4.333333333333333 L15.75 -4.333333333333333 z"/>
<path fill="#000000" stroke="#000000" d="M-15.75 -2.333333333333333 L15.75 -2.333333333333333 L15.75 -4.333333333333333 L-15.75 -4.333333333333333 z"/>
<path fill="#000000" stroke="#000000" d="M-15.75 -2.333333333333333 L-15.75 -4.333333333333333 L15.75 -4.333333333333333 L15.75 -2.333333333333333 z"/>
<path fill="#000000" stroke="#000000" d="M-15.75 4.333333333333333 L-15.75 4.333333333333333 L15.75 4.333333333333333 L15.75 4.333333333333333 z"/>
<path fill="#000000" stroke="#000000" d="M-15.75 2.3333333333333335 L-15.75 2.3333333333333335 L-15.75 4.333333333333333 L-15.75 4.333333333333333 z"/>
<path fill="#000000" stroke="#000000" d="M15.75 2.3333333333333335 L15.75 2.3333333333333335 L-15.75 2.3333333333333335 L-15.75 2.3333333333333335 z"/>
<path fill="#000000" stroke="#000000" d="M15.75 4.333333333333333 L15.75 4.333333333333333 L15.75 2.3333333333333335 L15.75 2.3333333333333335 z"/>
<path fill="#000000" stroke="#000000" d="M-15.75 4.333333333333333 L15.75 4.333333333333333 L15.75 2.333333333333333 L-15.75 2.333333333333333 z"/>
<path fill="#000000" stroke="#000000" d="M-15.75 4.333333333333333 L-15.75 2.333333333333333 L15.75 2.333333333333333 L15.75 4.333333333333333 z"/>
</svg>